<svg xmlns="http://www.w3.org/2000/svg" viewBox="0 0 126.06 97.89"><defs><style>.cls-1{fill:#fff;}</style></defs><title>자산 5</title><g id="레이어_2" data-name="레이어 2"><g id="레이어_1-2" data-name="레이어 1"><path class="cls-1" d="M124.13,76.21,100,34.5a14.29,14.29,0,0,0-4-4.44c-.1-.08-.21-.14-.32-.22-.27-.18-.54-.36-.82-.53l-.16-.1c-.15-.09-.31-.16-.46-.24l-.57-.29c-.29-.14-.58-.26-.88-.38l-.37-.14q-.49-.18-1-.33l-.29-.08c-.35-.09-.69-.16-1-.22l-.36-.07c-.31-.05-.63-.08-.94-.11l-.53,0-.76,0-.75,0-.53,0c-.32,0-.63.06-.94.11l-.36.07c-.35.06-.7.13-1,.22l-.3.08q-.51.15-1,.33l-.36.14c-.3.12-.59.24-.88.38l-.57.29c-.16.08-.31.15-.46.24l-.16.1c-.29.16-.56.35-.83.53-.1.08-.21.14-.32.22a14.29,14.29,0,0,0-4,4.44L63,55.2l-12-20.7a14.29,14.29,0,0,0-4-4.44c-.1-.08-.21-.14-.32-.22-.27-.18-.54-.36-.82-.53l-.16-.1c-.15-.09-.31-.16-.46-.24s-.38-.2-.58-.29-.58-.26-.87-.38l-.37-.14q-.51-.18-1-.33l-.29-.08c-.35-.09-.69-.16-1-.22l-.36-.07c-.32-.05-.63-.08-.94-.11l-.54,0-.75,0-.75,0-.53,0c-.32,0-.63.06-.94.11l-.36.07c-.35.06-.7.13-1,.22l-.3.08q-.51.15-1,.33l-.37.14c-.29.12-.58.24-.87.38l-.57.29-.47.24-.16.1c-.28.16-.55.35-.82.53-.1.08-.22.14-.32.22a14.29,14.29,0,0,0-4,4.44L1.93,76.21A14.49,14.49,0,0,0,7.22,96h0A14.5,14.5,0,0,0,27,90.67l11.57-20,11.58,20A14.48,14.48,0,0,0,63,97.88h0a14.48,14.48,0,0,0,12.9-7.21l11.57-20,11.58,20A14.49,14.49,0,0,0,118.84,96h0A14.5,14.5,0,0,0,124.13,76.21Z"/><circle class="cls-1" cx="38.54" cy="7.29" r="7.29"/><circle class="cls-1" cx="87.47" cy="7.29" r="7.29"/></g></g></svg>